<svg viewBox="-2.4 -2.4 28.8 28.8" xmlns="http://www.w3.org/2000/svg">
  <path d="M14.068 11.313h-.023a3.1 3.1 0 1 0 .175 6.2h-.024c1.621-.024 2.926-1.343 2.926-2.968 0-.025 0-.051-.001-.076v.004c.001-.031.002-.067.002-.103a3.054 3.054 0 0 0-3.055-3.057z" fill="#000000" />
  <path d="M0 0v24h24V0Zm20.693 20.807h-3.576V19.4a4.736 4.736 0 0 1-3.727 1.47h.011a5.66 5.66 0 0 1-3.934-1.486l.004.004c-1.352-1.174-2.201-2.896-2.201-4.815 0-.042 0-.085.001-.127v.006-.036a6.273 6.273 0 0 1 2.01-4.638l.003-.003a5.844 5.844 0 0 1 4.188-1.73h-.002c.072-.004.157-.007.242-.007 1.33 0 2.516.619 3.284 1.585l.007.009V4.157l3.693-.765Z" fill="#000000" />
</svg>
