<svg xmlns="http://www.w3.org/2000/svg" viewBox="0 0 64 64">
  <circle cx="32" cy="32" r="22" fill="#E60023"/>
  <path d="M34.7 18.5C26.8 18.5 22 24.1 22 30.2C22 34.1 24.1 37.6 27.4 39L29.2 31.7C28.7 30.7 28.4 29.4 28.4 28.1C28.4 24.3 31.5 21.1 35.9 21.1C39.7 21.1 41.8 23.7 41.8 27.1C41.8 32.1 39.1 35.6 35.6 35.6C33.7 35.6 32.2 34 32.7 32L33.7 28C34.2 26.2 33.3 24.7 31.7 24.7C29.8 24.7 28.2 26.7 28.2 29.4C28.2 31.1 28.8 32.2 28.8 32.2L26.3 42.8C25.7 45.4 26.2 49.5 26.3 49.9H26.5C26.8 49.4 29.1 45.9 29.8 43.4L30.8 39.6C31.8 41.5 34.6 42.9 37.6 42.9C45.6 42.9 51 35.6 51 27.4C51 20.1 44.9 18.5 34.7 18.5Z" fill="#FFFFFF"/>
</svg>
