<svg viewBox="0 0 48 48" xmlns="http://www.w3.org/2000/svg">
  <path d="M24.001411 0C10.747575 0 0 10.744752 0 24.001411c0 9.824661 5.910037 18.269183 14.368672 21.980596-.067737-1.673663-.01129-3.688834.414888-5.512083.462868-1.947433 3.087669-13.076027 3.087669-13.076027s-.764861-1.532546-.764861-3.798907c0-3.556182 2.06315-6.21203 4.628682-6.21203 2.18169 0 3.237256 1.639795 3.237256 3.604163 0 2.192979-1.399895 5.475392-2.119598 8.515082-.601165 2.548598 1.27571 4.623038 3.787617 4.623038 4.546833 0 7.609102-5.839478 7.609102-12.759923 0-5.25807-3.542071-9.195272-9.985536-9.195272-7.278885 0-11.814429 5.427412-11.814429 11.489857 0 2.094196.615276 3.567472 1.580526 4.707708.445934.527783.505203.736638.344328 1.340625-.112894.437467-.378197 1.504322-.488269 1.924854-.160875.606809-.651967.826954-1.199506.601164-3.355795-1.368848-4.916564-5.040747-4.916564-9.169871 0-6.816017 5.749162-14.995237 17.151526-14.995237 9.164226 0 15.195625 6.635385 15.195625 13.750573 0 9.415417-5.232669 16.448757-12.951843 16.448757-2.588111 0-5.026636-1.399894-5.862057-2.988887 0 0-1.394249 5.529017-1.687776 6.595872-.508026 1.848651-1.504321 3.700124-2.415946 5.139531A24.094777 24.094777 0 0 0 24.001411 48C37.255248 48 48 37.255248 48 24.001411 48 10.744752 37.255248 0 24.001411 0" fill="#CC2127" />
</svg>
