<svg xmlns="http://www.w3.org/2000/svg" viewBox="0 0 64 64">
  <rect x="10" y="10" width="44" height="44" rx="14" fill="#111111"/>
  <path d="M34 18V37.5A7.5 7.5 0 1 1 27.5 30.1V36A3.6 3.6 0 1 0 30.2 39.5V18H34Z" fill="#25F4EE"/>
  <path d="M37 18C38 22 40.8 24.8 45 25.6V30.8C41.9 30.5 39.2 29.2 37 27.2V37.5A7.5 7.5 0 1 1 30.5 30.1V36A3.6 3.6 0 1 0 33.2 39.5V14.8H37V18Z" fill="#FE2C55"/>
  <path d="M35.5 16.5C36.5 20.5 39.1 23 43 23.7V28.5C40.2 28.1 37.7 26.9 35.5 25V36.3A7.5 7.5 0 1 1 29 28.9V33.8A3.6 3.6 0 1 0 31.7 37.3V16.5H35.5Z" fill="#FFFFFF"/>
</svg>
