<svg viewBox="0 -7 48 48" xmlns="http://www.w3.org/2000/svg">
  <path
    d="M19.044 23.269916 19.0425 9.687742 32.0115 16.502244 19.044 23.269916ZM47.52 7.334163S47.0505 4.003199 45.612 2.536366C43.7865.610299 41.7405.601235 40.803.489448 34.086 0 24.0105 0 24.0105 0L23.9895 0S13.914 0 7.197.489448C6.258.601235 4.2135.610299 2.3865 2.536366.948 4.003199.48 7.334163.48 7.334163S0 11.246723 0 15.157773V18.82561C0 22.73817.48 26.64922.48 26.64922S.948 29.980184 2.3865 31.447016C4.2135 33.373084 6.612 33.312658 7.68 33.513574 11.52 33.885191 24 34 24 34S34.086 33.984894 40.803 33.495446C41.7405 33.382148 43.7865 33.373084 45.612 31.447016 47.0505 29.980184 47.52 26.64922 47.52 26.64922S48 22.73817 48 18.82561V15.157773C48 11.246723 47.52 7.334163 47.52 7.334163Z"
    fill="#CE1312"
  />
</svg>
