<svg width="108" height="108" viewBox="0 0 108 108" fill="none" xmlns="http://www.w3.org/2000/svg">
  <!-- Gradient Definition -->
  <defs>
    <linearGradient id="nightlyGradient" x1="0%" y1="0%" x2="100%" y2="100%">
      <stop offset="0%" stop-color="#F97316" />
      <stop offset="50%" stop-color="#5B21B6" />
      <stop offset="100%" stop-color="#111827" />
    </linearGradient>
  </defs>

  <!-- Background App Icon Shape -->
  <rect width="108" height="108" rx="24" fill="url(#nightlyGradient)" />

  <!-- NIGHTLY pill badge drop shadow -->
  <path
    d="M16,72 Q16,64 24,64 L84,64 Q92,64 92,72 L92,82 Q92,90 84,90 L24,90 Q16,90 16,82 Z"
    fill="#000000"
    fill-opacity="0.2" />

  <!-- Arrow Stem -->
  <path
    d="M54,25 L54,53"
    stroke="#FFFFFF"
    stroke-width="6"
    stroke-linecap="round" />

  <!-- Arrowhead (Left & Right Prongs) -->
  <path
    d="M54,53 L42,41"
    stroke="#FFFFFF"
    stroke-width="6"
    stroke-linecap="round"
    stroke-linejoin="round" />
  <path
    d="M54,53 L66,41"
    stroke="#FFFFFF"
    stroke-width="6"
    stroke-linecap="round"
    stroke-linejoin="round" />

  <!-- Download Tray -->
  <path
    d="M36,59 L36,64 Q36,70 42,70 L66,70 Q72,70 72,64 L72,59"
    stroke="#FFFFFF"
    stroke-width="6"
    stroke-linecap="round"
    stroke-linejoin="round"
    fill="none" />

  <!-- NIGHTLY Badge Background Pill -->
  <path
    d="M18,72 Q18,66 24,66 L84,66 Q90,66 90,72 L90,81 Q90,87 84,87 L24,87 Q18,87 18,81 Z"
    fill="#F97316" />

  <!-- NIGHTLY Letters (N, I, H, T, L, Y) -->
  <path
    d="M28.5,82 L28.5,72 L34.5,82 L34.5,72 M37.5,72 L37.5,82 M51,72 L51,82 M51,77 L57,77 M57,72 L57,82 M60,72 L66,72 M63,72 L63,82 M69,72 L69,82 L74,82 M73.5,72 L76.5,77 L79.5,72 M76.5,77 L76.5,82"
    stroke="#FFFFFF"
    stroke-width="1.6"
    stroke-linecap="round"
    stroke-linejoin="round"
    fill="none" />

  <!-- NIGHTLY Letter (G) -->
  <path
    d="M46.5,73 Q43.5,72 41.5,74 Q39.5,76 40.5,79 Q41.5,82 44.5,82 Q46.5,82 47.5,80 L47.5,78 L44.5,78"
    stroke="#FFFFFF"
    stroke-width="1.6"
    stroke-linecap="round"
    stroke-linejoin="round"
    fill="none" />
</svg>
